<?xml version="1.0" standalone="no"?>
<!DOCTYPE svg PUBLIC "-//W3C//DTD SVG 20010904//EN"
 "http://www.w3.org/TR/2001/REC-SVG-20010904/DTD/svg10.dtd">
<svg version="1.0" xmlns="http://www.w3.org/2000/svg"
 width="267.000000pt" height="328.000000pt" viewBox="0 0 267.000000 328.000000"
 preserveAspectRatio="xMidYMid meet">
<metadata>
Created by potrace 1.16, written by Peter Selinger 2001-2019
</metadata>
<g transform="translate(0.000000,328.000000) scale(0.100000,-0.100000)"
fill="#000000" stroke="none">
<path d="M240 3271 c-92 -29 -169 -96 -211 -187 l-29 -60 2 -1395 3 -1394 24
-48 c30 -62 97 -128 158 -159 l48 -23 1100 0 1100 0 46 23 c59 29 124 94 158
157 l26 50 3 1165 2 1164 -25 52 c-38 77 -561 591 -643 631 l-57 28 -840 2
c-462 1 -851 -2 -865 -6z m1709 -125 c57 -30 568 -534 591 -581 20 -41 20 -60
20 -1156 l0 -1114 -24 -50 c-25 -54 -71 -100 -123 -122 -26 -11 -223 -13
-1080 -13 -992 0 -1050 1 -1088 19 -51 23 -111 89 -124 138 -17 58 -15 2692 1
2747 15 50 89 127 138 143 25 8 270 11 845 10 769 -2 812 -3 844 -21z"/>
<path d="M1235 2640 c-78 -31 -85 -181 -19 -391 l26 -82 -60 -151 c-33 -83
-78 -190 -100 -237 l-40 -86 -128 -67 c-190 -99 -259 -158 -271 -230 -4 -25 1
-39 20 -62 22 -25 32 -29 79 -29 31 0 69 8 93 20 58 28 160 137 240 259 l70
106 95 30 c52 16 137 39 188 50 l94 21 40 -37 c22 -20 79 -54 126 -77 75 -36
95 -41 172 -45 67 -3 94 -1 119 12 37 19 55 57 46 97 -8 37 -65 86 -112 96
-49 10 -206 10 -308 0 l-80 -8 -70 91 c-38 50 -84 114 -102 143 l-32 52 24 92
c70 268 48 408 -70 437 -11 2 -29 1 -40 -4z m57 -47 c8 -10 18 -30 22 -46 7
-32 -16 -186 -40 -267 l-17 -55 -18 52 c-24 72 -43 195 -36 243 10 77 54 113
89 73z m54 -580 c21 -31 63 -86 92 -122 29 -35 49 -67 45 -71 -4 -4 -53 -17
-107 -30 -55 -12 -124 -31 -153 -41 -30 -10 -53 -15 -51 -11 2 4 32 80 67 170
36 89 65 162 66 162 1 0 19 -26 41 -57z m507 -204 c73 -20 99 -77 56 -120 -18
-18 -29 -21 -73 -16 -28 3 -80 18 -116 32 -67 27 -164 84 -157 92 7 7 127 20
192 22 33 0 77 -4 98 -10z m-862 -197 c-17 -32 -102 -143 -144 -189 -76 -82
-159 -105 -173 -47 -9 36 11 68 71 114 47 36 230 139 248 140 4 0 3 -8 -2 -18z"/>
<path d="M800 720 l0 -250 40 0 40 0 0 100 0 100 64 0 c107 0 156 47 156 151
0 69 -29 118 -80 136 -19 7 -77 12 -127 12 l-93 1 0 -250z m197 167 c8 -8 17
-35 20 -59 7 -62 -17 -89 -85 -96 l-52 -5 0 93 0 93 51 -5 c28 -3 57 -12 66
-21z"/>
<path d="M1170 720 l0 -250 78 0 c93 0 141 12 182 47 49 40 73 98 78 184 8
133 -43 229 -135 257 -22 7 -77 12 -122 12 l-81 0 0 -250z m196 163 c58 -38
77 -188 35 -275 -24 -50 -53 -68 -111 -68 l-40 0 0 178 c0 98 3 182 7 186 10
10 83 -4 109 -21z"/>
<path d="M1590 720 l0 -250 45 0 45 0 0 110 0 110 75 0 75 0 0 30 0 30 -75 0
-75 0 0 80 0 80 95 0 95 0 0 30 0 30 -140 0 -140 0 0 -250z"/>
</g>
</svg>
